<svg width="1440" height="1024" viewBox="0 0 1440 1024" fill="none" xmlns="http://www.w3.org/2000/svg">
<g filter="url(#filter0_d)">
<rect width="1440" height="1024" fill="#FFF1E9"/>
<path d="M1350.23 314.143C1332.43 332.687 1312.36 349.472 1290.4 364.201C1204.84 421.696 1096.48 452.878 989.574 459.418C934.633 462.803 879.423 459.517 825.509 449.653C770.659 439.584 718.342 421.848 667.675 401.132C618.396 380.978 570.576 358.253 521.627 337.537C522.149 336.183 522.669 334.829 523.172 333.46C576.547 355.972 628.829 380.78 682.828 402.227C733.704 422.442 786.367 438.93 841.443 447.752C896.395 456.494 952.478 458.419 1008.04 453.471C1114.65 444.071 1223.1 409.604 1305.07 347.941C1320.46 336.364 1334.68 323.653 1347.59 309.945C1348.48 311.344 1349.36 312.744 1350.23 314.143Z" fill="white"/>
<path d="M1403.69 445.12C1379.88 482.127 1346.26 514.769 1307.76 540.642C1222.2 598.137 1113.84 629.319 1006.93 635.859C951.991 639.244 896.78 635.958 842.867 626.094C788.016 616.025 735.7 598.289 685.033 577.573C633.446 556.476 583.439 532.55 532.077 511.058C480.768 489.58 428.035 471.267 372.785 459.281C376.829 458.658 380.753 457.973 384.571 457.197C388.181 458.019 391.78 458.87 395.368 459.753C503.402 486.219 598.748 538.375 700.186 578.668C751.062 598.883 803.725 615.371 858.8 624.193C913.753 632.935 969.835 634.86 1025.4 629.912C1132.01 620.512 1240.46 586.045 1322.42 524.382C1354.87 500.081 1381.9 470.734 1402.17 437.819C1402.72 440.253 1403.23 442.687 1403.69 445.12Z" fill="white"/>
<path d="M331.144 770.046C437.581 796.116 531.695 847.132 631.467 887.151C630.443 888.413 629.419 889.676 628.377 890.938C625.843 889.919 623.327 888.9 620.809 887.866C569.223 866.769 519.215 842.843 467.853 821.351C415.45 799.417 361.572 780.784 305.038 768.814C226.893 752.319 146.168 747.288 66.1444 753.923C65.9529 752.402 65.78 750.865 65.6232 749.344C154.83 741.965 244.825 748.982 331.144 770.046Z" fill="white"/>
<path d="M1364.45 62.2632C1372.12 62.2632 1378.34 56.8152 1378.34 50.0948C1378.34 43.3744 1372.12 37.9265 1364.45 37.9265C1356.78 37.9265 1350.56 43.3744 1350.56 50.0948C1350.56 56.8152 1356.78 62.2632 1364.45 62.2632Z" fill="#FF4893"/>
<path d="M1432.71 18.257C1436.73 18.257 1440 15.3952 1440 11.8651C1440 8.33493 1436.73 5.47318 1432.71 5.47318C1428.68 5.47318 1425.41 8.33493 1425.41 11.8651C1425.41 15.3952 1428.68 18.257 1432.71 18.257Z" fill="#FF4893"/>
<path d="M1207.76 574.927C1215.42 574.927 1221.64 569.479 1221.64 562.759C1221.64 556.038 1215.42 550.591 1207.76 550.591C1200.09 550.591 1193.87 556.038 1193.87 562.759C1193.87 569.479 1200.09 574.927 1207.76 574.927Z" fill="#FF4893"/>
<path d="M1246.49 631.496C1250.52 631.496 1253.78 628.634 1253.78 625.104C1253.78 621.574 1250.52 618.712 1246.49 618.712C1242.46 618.712 1239.2 621.574 1239.2 625.104C1239.2 628.634 1242.46 631.496 1246.49 631.496Z" fill="#FF4893"/>
<path d="M547.085 172.377C554.754 172.377 560.971 166.929 560.971 160.209C560.971 153.488 554.754 148.04 547.085 148.04C539.416 148.04 533.199 153.488 533.199 160.209C533.199 166.929 539.416 172.377 547.085 172.377Z" fill="#FF4893"/>
<path d="M466.108 164.674C470.137 164.674 473.402 161.812 473.402 158.282C473.402 154.752 470.137 151.89 466.108 151.89C462.08 151.89 458.814 154.752 458.814 158.282C458.814 161.812 462.08 164.674 466.108 164.674Z" fill="#FF4893"/>
</g>
<defs>
<filter id="filter0_d" x="-4" y="0" width="1448" height="1032" filterUnits="userSpaceOnUse" color-interpolation-filters="sRGB">
<feFlood flood-opacity="0" result="BackgroundImageFix"/>
<feColorMatrix in="SourceAlpha" type="matrix" values="0 0 0 0 0 0 0 0 0 0 0 0 0 0 0 0 0 0 127 0"/>
<feOffset dy="4"/>
<feGaussianBlur stdDeviation="2"/>
<feColorMatrix type="matrix" values="0 0 0 0 0 0 0 0 0 0 0 0 0 0 0 0 0 0 0.25 0"/>
<feBlend mode="normal" in2="BackgroundImageFix" result="effect1_dropShadow"/>
<feBlend mode="normal" in="SourceGraphic" in2="effect1_dropShadow" result="shape"/>
</filter>
</defs>
</svg>
