<svg width="2418" height="1643" viewBox="0 0 2418 1643" fill="none" xmlns="http://www.w3.org/2000/svg">
<g clip-path="url(#clip0)">
<rect width="2418" height="1643" fill="#FFF1E9"/>
<path opacity="0.1" d="M2308.3 532.593V487.495C2337.8 473.173 2362.22 447.034 2377.38 413.554C2392.54 380.073 2397.49 341.333 2391.39 303.968C2385.28 266.603 2368.51 232.936 2343.93 208.733C2319.35 184.529 2288.5 171.294 2256.65 171.294C2224.81 171.294 2193.96 184.529 2169.38 208.733C2144.8 232.936 2128.03 266.603 2121.92 303.968C2115.82 341.333 2120.77 380.073 2135.93 413.554C2151.09 447.034 2175.51 473.173 2205.01 487.495V532.593C2170.62 544.024 2139.55 566.616 2115.23 597.866C2089.48 551.674 2050.71 518.083 2005.97 503.214V458.074C2035.48 443.752 2059.9 417.613 2075.06 384.132C2090.21 350.652 2095.17 311.912 2089.06 274.547C2082.96 237.182 2066.18 203.515 2041.61 179.311C2017.03 155.108 1986.18 141.873 1954.33 141.873C1922.49 141.873 1891.64 155.108 1867.06 179.311C1842.48 203.515 1825.71 237.182 1819.6 274.547C1813.5 311.912 1818.45 350.652 1833.61 384.132C1848.77 417.613 1873.19 443.752 1902.69 458.074V503.172C1872.11 513.323 1844.09 532.319 1821.1 558.484C1795.45 517.315 1759.08 487.508 1717.71 473.751V428.652C1747.22 414.331 1771.64 388.192 1786.8 354.711C1801.95 321.231 1806.91 282.491 1800.8 245.126C1794.7 207.76 1777.92 174.094 1753.35 149.89C1728.77 125.686 1697.92 112.452 1666.07 112.452C1634.23 112.452 1603.38 125.686 1578.8 149.89C1554.22 174.094 1537.44 207.76 1531.34 245.126C1525.24 282.491 1530.19 321.231 1545.35 354.711C1560.51 388.192 1584.93 414.331 1614.43 428.652V473.751C1579.24 485.476 1547.55 508.88 1523.03 541.252C1512.1 507.744 1494.79 477.742 1472.48 453.623C1450.17 429.504 1423.46 411.932 1394.48 402.299V357.201C1423.98 342.879 1448.4 316.74 1463.56 283.26C1478.72 249.779 1483.67 211.039 1477.57 173.674C1471.46 136.309 1454.69 102.642 1430.11 78.4385C1405.53 54.2349 1374.68 41 1342.84 41C1310.99 41 1280.14 54.2349 1255.56 78.4385C1230.98 102.642 1214.21 136.309 1208.1 173.674C1202 211.039 1206.95 249.779 1222.11 283.26C1237.27 316.74 1261.69 342.879 1291.19 357.201V402.299C1253.52 414.839 1219.92 440.741 1194.82 476.587C1169.71 512.432 1154.29 556.536 1150.58 603.078C1132.84 588.353 1113.14 577.312 1092.33 570.421V525.322C1121.83 511 1146.25 484.861 1161.41 451.381C1176.57 417.9 1181.52 379.161 1175.42 341.795C1169.32 304.43 1152.54 270.763 1127.96 246.56C1103.38 222.356 1072.53 209.121 1040.69 209.121C1008.85 209.121 977.996 222.356 953.417 246.56C928.838 270.763 912.061 304.43 905.959 341.795C899.856 379.161 904.808 417.9 919.966 451.381C935.124 484.861 959.545 511 989.048 525.322V570.421C962.791 579.164 938.369 594.425 917.375 615.209C896.381 635.994 879.287 661.835 867.206 691.048C850.918 678.534 833.14 669.039 814.475 662.887V617.789C843.979 603.467 868.4 577.328 883.558 543.848C898.716 510.367 903.668 471.627 897.565 434.262C891.463 396.897 874.686 363.23 850.107 339.027C825.529 314.823 794.677 301.588 762.835 301.588C730.993 301.588 700.141 314.823 675.562 339.027C650.983 363.23 634.206 396.897 628.104 434.262C622.002 471.627 626.954 510.367 642.112 543.848C657.27 577.328 681.691 603.467 711.194 617.789V662.887C693.582 668.698 676.759 677.502 661.241 689.03C649.077 660.296 632.038 634.909 611.211 614.487C590.384 594.065 566.226 579.057 540.277 570.421V525.322C569.78 511 594.201 484.861 609.359 451.381C624.517 417.9 629.469 379.161 623.367 341.795C617.264 304.43 600.487 270.763 575.909 246.56C551.33 222.356 520.478 209.121 488.636 209.121C456.794 209.121 425.942 222.356 401.363 246.56C376.785 270.763 360.008 304.43 353.905 341.795C347.803 379.161 352.755 417.9 367.913 451.381C383.071 484.861 407.492 511 436.995 525.322V570.421C409.067 579.709 383.239 596.374 361.415 619.186C339.591 641.998 322.328 670.376 310.899 702.228C291.24 684.185 268.863 670.829 244.986 662.887V617.789C274.489 603.467 298.91 577.328 314.068 543.848C329.226 510.367 334.178 471.627 328.076 434.262C321.974 396.897 305.197 363.23 280.618 339.027C256.039 314.823 225.187 301.588 193.345 301.588C161.503 301.588 130.651 314.823 106.073 339.027C81.4939 363.23 64.717 396.897 58.6146 434.262C52.5123 471.627 57.464 510.367 72.622 543.848C87.78 577.328 112.201 603.467 141.704 617.789V662.887C100.963 676.388 65.0462 705.482 39.453 745.715C13.8599 785.948 0.00147859 835.101 0 885.648V1928H386.479V1835.53H569.279V1928H955.969V1835.53H1233.68V1667.41H1472.73V1738.86H1760.99V1768.28H2063.31V1797.71H2450V755.354C2450 704.807 2436.14 655.654 2410.55 615.421C2384.95 575.188 2349.04 546.094 2308.3 532.593V532.593Z" fill="#FF4893"/>
</g>
<defs>
<clipPath id="clip0">
<rect width="2418" height="1643" fill="white"/>
</clipPath>
</defs>
</svg>
