<svg width="1440" height="1024" viewBox="0 0 1440 1024" fill="none" xmlns="http://www.w3.org/2000/svg">
<g clip-path="url(#clip0)">
<rect width="1440" height="1024" fill="#FFF1E9"/>
<g opacity="0.2">
<path opacity="0.2" d="M1461.5 1020.86C1450.16 1003.38 1422.65 1002.06 1400.06 1017.92C1377.47 1033.78 1368.36 1060.81 1379.7 1078.29C1391.05 1095.78 1418.56 1097.09 1441.14 1081.23C1463.73 1065.37 1472.84 1038.34 1461.5 1020.86Z" fill="#3F3D56"/>
<path opacity="0.2" d="M1436.4 982.142C1425.06 964.658 1397.55 963.342 1374.97 979.201C1352.38 995.061 1343.26 1022.09 1354.61 1039.58C1365.95 1057.06 1393.46 1058.38 1416.05 1042.52C1438.63 1026.66 1447.75 999.626 1436.4 982.142Z" fill="#3F3D56"/>
<path opacity="0.2" d="M1411.27 943.452C1399.93 925.968 1372.42 924.651 1349.83 940.511C1327.24 956.371 1318.13 983.401 1329.47 1000.89C1340.82 1018.37 1368.33 1019.69 1390.91 1003.83C1413.5 987.966 1422.61 960.936 1411.27 943.452Z" fill="#3F3D56"/>
<path opacity="0.2" d="M1045.36 814.759C1037.02 814.492 1029.05 813.631 1021.51 812.181L1122.24 726.249L1006.14 808.566C985.686 802.045 969.521 790.772 958.639 775.435C947.756 760.099 942.385 741.022 942.853 719.372L1129.86 657.666L945.421 696.179C949.901 672.936 960.213 648.199 975.71 623.514C991.207 598.828 1011.56 574.725 1035.49 552.709C1059.42 530.692 1086.43 511.236 1114.81 495.556C1143.19 479.875 1172.35 468.306 1200.46 461.573C1228.56 454.839 1255.02 453.084 1278.17 456.419C1301.31 459.753 1320.66 468.105 1335 480.952C1349.34 493.8 1358.35 510.867 1361.49 531.088C1364.63 551.309 1361.82 574.249 1353.23 598.476C1366.19 598.9 1378.29 600.721 1389.29 603.908L1277.68 744.772L1407.35 610.749C1429.66 621.684 1444.91 639.399 1451.72 662.292C1458.53 685.184 1456.68 712.532 1446.34 741.858C1480.19 742.972 1507.67 753.564 1525.65 772.423C1543.62 791.282 1551.36 817.647 1547.98 848.5C1544.6 879.353 1530.24 913.45 1506.54 946.889C1482.83 980.328 1450.75 1011.76 1413.95 1037.59C1377.15 1063.42 1337.12 1082.6 1298.45 1092.94C1259.78 1103.28 1224.02 1104.36 1195.27 1096.06C1166.51 1087.76 1145.93 1070.42 1135.86 1046.01C1125.79 1021.6 1126.65 991.114 1138.34 958.038C1097.91 956.699 1066.76 941.844 1049.9 915.858C1033.04 889.873 1031.44 854.266 1045.36 814.759V814.759Z" fill="#FF4893"/>
<path opacity="0.1" d="M1441.75 640.682C1458.66 666.659 1460.23 702.318 1446.18 741.875C1480.06 742.961 1507.57 753.529 1525.57 772.372C1543.57 791.215 1551.34 817.57 1547.99 848.422C1544.63 879.274 1530.28 913.376 1506.59 946.825C1482.9 980.274 1450.81 1011.72 1414.01 1037.56C1377.21 1063.4 1337.18 1082.6 1298.49 1092.95C1259.81 1103.3 1224.04 1104.39 1195.28 1096.09C1166.52 1087.79 1145.92 1070.44 1135.85 1046.03C1125.78 1021.62 1126.65 991.121 1138.35 958.038C1099.14 956.862 1433.31 627.688 1441.75 640.682Z" fill="black"/>
</g>
<g opacity="0.2">
<path opacity="0.2" d="M1601.97 870.891C1586.38 846.186 1542.31 848.383 1503.55 875.798C1464.78 903.213 1446 945.464 1461.59 970.169C1477.19 994.873 1521.26 992.676 1560.02 965.261C1598.79 937.847 1617.57 895.595 1601.97 870.891Z" fill="#3F3D56"/>
<path opacity="0.2" d="M1567.48 816.18C1551.89 791.475 1507.82 793.672 1469.05 821.087C1430.29 848.502 1411.51 890.753 1427.1 915.458C1442.7 940.162 1486.76 937.965 1525.53 910.55C1564.29 883.135 1583.08 840.884 1567.48 816.18Z" fill="#3F3D56"/>
<path opacity="0.2" d="M1532.92 761.515C1517.33 736.811 1473.26 739.008 1434.5 766.423C1395.73 793.838 1376.95 836.088 1392.54 860.793C1408.14 885.498 1452.2 883.301 1490.97 855.886C1529.73 828.471 1548.52 786.22 1532.92 761.515Z" fill="#3F3D56"/>
<path opacity="0.2" d="M963.655 622.665C950.276 623.532 937.575 623.443 925.652 622.4L1100.85 477.156L901.482 619.274C869.55 612.53 845.253 597.948 830.074 576.42C814.896 554.892 809.156 526.87 813.206 494.068L1123.55 372.316L820.868 458.616C831.617 422.795 851.977 383.829 880.675 344.151C909.373 304.474 945.793 264.937 987.661 228.01C1029.53 191.083 1075.94 157.56 1124.01 129.534C1172.07 101.507 1220.76 79.5798 1267.01 65.121C1313.27 50.6623 1356.11 43.9827 1392.86 45.4995C1429.6 47.0163 1459.47 56.6968 1480.59 73.9365C1501.7 91.1763 1513.62 115.605 1515.59 145.697C1517.56 175.788 1509.54 210.897 1492.03 248.829C1512.83 247.496 1532.02 248.409 1549.24 251.551L1348.19 481.495L1577.27 259.143C1611.51 272.278 1633.35 296.738 1640.82 330.31C1648.29 363.882 1641.15 405.506 1620.06 451.414C1674.36 447.945 1716.97 459.774 1743.03 485.548C1769.08 511.322 1777.53 550.001 1767.39 597.158C1757.25 644.315 1728.95 698.048 1685.71 752.209C1642.47 806.369 1586.05 858.771 1522.9 903.419C1459.75 948.068 1392.42 983.159 1328.61 1004.68C1264.8 1026.2 1207.08 1033.28 1162.07 1025.11C1117.06 1016.94 1086.57 993.853 1074.09 958.484C1061.6 923.116 1067.63 876.897 1091.48 825.115C1026.62 829.246 978.748 811.53 955.566 774.813C932.383 738.096 935.232 684.511 963.655 622.665V622.665Z" fill="#FF4893"/>
<path opacity="0.1" d="M1628.06 299.16C1651.33 335.855 1648.42 389.525 1619.8 451.464C1674.14 447.948 1716.81 459.738 1742.91 485.483C1769.02 511.228 1777.51 549.888 1767.41 597.04C1757.31 644.192 1729.03 697.93 1685.81 752.103C1642.59 806.277 1586.17 858.698 1523.01 903.367C1459.85 948.037 1392.5 983.149 1328.67 1004.69C1264.84 1026.22 1207.11 1033.32 1162.09 1025.15C1117.06 1016.99 1086.56 993.893 1074.07 958.517C1061.59 923.141 1067.62 876.91 1091.48 825.114C1028.57 829.305 1616.45 280.8 1628.06 299.16Z" fill="black"/>
</g>
<g opacity="0.2">
<path opacity="0.2" d="M209.662 1133.78C223.972 1117.65 212.602 1086.36 184.268 1063.88C155.933 1041.4 121.363 1036.25 107.054 1052.37C92.7438 1068.5 104.113 1099.8 132.447 1122.28C160.782 1144.76 195.352 1149.91 209.662 1133.78Z" fill="#3F3D56"/>
<path opacity="0.2" d="M96.1604 535.662C91.1383 523.89 87.1821 512.532 84.3219 501.673L269.251 628.651L79.4245 479.456C75.2812 449.574 80.5388 424.919 94.8759 406.997C109.213 389.075 132.328 378.265 162.808 375.226L369.769 627.649L196.794 374.874C232.089 377.206 273.236 387.48 317.667 405.056C362.097 422.632 408.855 447.132 455.021 477.026C501.188 506.92 545.77 541.565 585.984 578.799C626.198 616.032 661.18 655.054 688.746 693.427C716.311 731.799 735.866 768.698 746.192 801.819C756.517 834.941 757.391 863.572 748.757 885.927C740.123 908.281 722.168 923.877 696.013 931.741C669.858 939.605 636.065 939.569 596.744 931.634C604.539 949.937 609.821 967.25 612.498 983.27L343.973 850.391L614.646 1009.84C613.834 1043.07 599.005 1067.54 571.5 1081.02C543.996 1094.51 504.684 1096.58 457.124 1087.06C477.464 1134.84 480.476 1175.29 465.816 1203.79C451.156 1232.28 419.416 1247.67 374.226 1248.19C329.036 1248.7 272.223 1234.33 210.284 1206.71C148.345 1179.09 83.7819 1139.34 23.9812 1092.01C-35.8195 1044.67 -88.4432 991.669 -127.87 939.056C-167.297 886.442 -191.935 836.345 -198.965 794.496C-205.995 752.646 -195.134 720.734 -167.623 702.41C-140.113 684.086 -97.0645 680.09 -43.4027 690.879C-67.6872 633.797 -67.129 587.458 -41.8177 559.308C-16.5063 531.158 32.0888 522.83 96.1604 535.662V535.662Z" fill="#FF4893"/>
<path opacity="0.1" d="M563.439 1110.64C542.207 1134.67 502.947 1143.21 452.027 1134.88C466.628 1173.32 467.624 1206.38 454.9 1230.28C442.176 1254.18 416.247 1267.95 380.08 1270.03C343.914 1272.1 298.97 1262.39 250.394 1242C201.817 1221.62 151.57 1191.38 105.403 1154.76C59.2364 1118.13 19.0147 1076.6 -10.6586 1034.9C-40.3318 993.212 -58.2578 953.048 -62.3851 919.007C-66.5123 884.967 -56.6739 858.427 -33.996 842.423C-11.318 826.42 23.2832 821.6 65.848 828.515C48.8587 784.046 574.07 1098.65 563.439 1110.64Z" fill="black"/>
</g>
<path opacity="0.1" d="M1000.1 609.73C999.58 609.62 998.89 609.8 998.79 610.32C998.777 610.585 998.847 610.847 998.99 611.07C1000.14 612.883 1001.8 614.308 1003.77 615.16C1004.11 615.349 1004.48 615.468 1004.86 615.51C1005.06 615.534 1005.26 615.497 1005.44 615.404C1005.62 615.311 1005.76 615.167 1005.86 614.99C1005.92 614.839 1005.94 614.678 1005.93 614.517C1005.91 614.357 1005.87 614.201 1005.79 614.06C1005.48 613.519 1005.06 613.054 1004.55 612.7C1003.21 611.65 1001.84 610.02 1000.1 609.73Z" fill="black"/>
<g opacity="0.1">
<path opacity="0.1" d="M360.88 622.77C360.377 623.307 359.843 623.815 359.28 624.29C359.85 624.29 360.41 624.2 360.98 624.14C361 623.68 360.93 623.22 360.88 622.77Z" fill="black"/>
<path opacity="0.1" d="M351.82 616.83C353.07 616.75 354.3 616.62 355.54 616.44C356.652 616.299 357.74 616.003 358.77 615.56C358.266 614.559 357.685 613.599 357.03 612.69C356.408 613.069 355.734 613.355 355.03 613.54C354.049 614.72 352.976 615.821 351.82 616.83Z" fill="black"/>
<path opacity="0.1" d="M321.27 627.5C321.263 623.709 322.278 619.986 324.209 616.723C326.139 613.46 328.914 610.778 332.241 608.96C335.568 607.142 339.324 606.255 343.113 606.392C346.902 606.53 350.583 607.686 353.77 609.74L354.09 609.4C352.01 607.549 349.585 606.129 346.954 605.22C344.322 604.311 341.537 603.932 338.759 604.104C335.98 604.276 333.263 604.997 330.764 606.224C328.265 607.451 326.034 609.16 324.199 611.253C322.364 613.346 320.961 615.782 320.071 618.42C319.181 621.058 318.822 623.845 319.015 626.623C319.207 629.4 319.948 632.111 321.193 634.601C322.438 637.091 324.163 639.31 326.27 641.13C323.036 637.326 321.263 632.493 321.27 627.5V627.5Z" fill="black"/>
</g>
</g>
<defs>
<clipPath id="clip0">
<rect width="1440" height="1024" fill="white"/>
</clipPath>
</defs>
</svg>
