<svg width="1440" height="1024" viewBox="0 0 1440 1024" fill="none" xmlns="http://www.w3.org/2000/svg">
<g clip-path="url(#clip0)">
<rect width="1440" height="1024" fill="#FFF1E9"/>
<g opacity="0.2">
<path opacity="0.2" d="M1461.5 1020.86C1450.16 1003.38 1422.65 1002.06 1400.06 1017.92C1377.47 1033.78 1368.36 1060.81 1379.7 1078.29C1391.05 1095.78 1418.56 1097.09 1441.14 1081.23C1463.73 1065.37 1472.84 1038.34 1461.5 1020.86Z" fill="#3F3D56"/>
<path opacity="0.2" d="M1436.4 982.142C1425.06 964.658 1397.55 963.342 1374.97 979.201C1352.38 995.061 1343.26 1022.09 1354.61 1039.58C1365.95 1057.06 1393.46 1058.38 1416.05 1042.52C1438.63 1026.66 1447.75 999.626 1436.4 982.142Z" fill="#3F3D56"/>
<path opacity="0.2" d="M1411.27 943.452C1399.93 925.968 1372.42 924.651 1349.83 940.511C1327.24 956.371 1318.13 983.401 1329.47 1000.89C1340.82 1018.37 1368.33 1019.69 1390.91 1003.83C1413.5 987.966 1422.61 960.936 1411.27 943.452Z" fill="#3F3D56"/>
<path opacity="0.2" d="M1045.36 814.759C1037.02 814.492 1029.05 813.631 1021.51 812.181L1122.24 726.249L1006.14 808.566C985.686 802.045 969.521 790.772 958.639 775.435C947.756 760.099 942.385 741.022 942.853 719.372L1129.86 657.666L945.421 696.179C949.901 672.936 960.213 648.199 975.71 623.514C991.207 598.828 1011.56 574.725 1035.49 552.709C1059.42 530.692 1086.43 511.236 1114.81 495.556C1143.19 479.875 1172.35 468.306 1200.46 461.573C1228.56 454.839 1255.02 453.084 1278.17 456.419C1301.31 459.753 1320.66 468.105 1335 480.952C1349.34 493.8 1358.35 510.867 1361.49 531.088C1364.63 551.309 1361.82 574.249 1353.23 598.476C1366.19 598.9 1378.29 600.721 1389.29 603.908L1277.68 744.772L1407.35 610.749C1429.66 621.684 1444.91 639.399 1451.72 662.292C1458.53 685.184 1456.68 712.532 1446.34 741.858C1480.19 742.972 1507.67 753.564 1525.65 772.423C1543.62 791.282 1551.36 817.647 1547.98 848.5C1544.6 879.353 1530.24 913.45 1506.54 946.889C1482.83 980.328 1450.75 1011.76 1413.95 1037.59C1377.15 1063.42 1337.12 1082.6 1298.45 1092.94C1259.78 1103.28 1224.02 1104.36 1195.27 1096.06C1166.51 1087.76 1145.93 1070.42 1135.86 1046.01C1125.79 1021.6 1126.65 991.114 1138.34 958.038C1097.91 956.699 1066.76 941.844 1049.9 915.858C1033.04 889.873 1031.44 854.266 1045.36 814.759V814.759Z" fill="#FF4893"/>
<path opacity="0.1" d="M1441.75 640.682C1458.66 666.659 1460.23 702.318 1446.18 741.875C1480.06 742.961 1507.57 753.529 1525.57 772.372C1543.57 791.215 1551.34 817.57 1547.99 848.422C1544.63 879.274 1530.28 913.376 1506.59 946.825C1482.9 980.274 1450.81 1011.72 1414.01 1037.56C1377.21 1063.4 1337.18 1082.6 1298.49 1092.95C1259.81 1103.3 1224.04 1104.39 1195.28 1096.09C1166.52 1087.79 1145.92 1070.44 1135.85 1046.03C1125.78 1021.62 1126.65 991.121 1138.35 958.038C1099.14 956.862 1433.31 627.688 1441.75 640.682Z" fill="black"/>
</g>
<g opacity="0.2">
<path opacity="0.2" d="M1461.5 1020.86C1450.16 1003.38 1422.65 1002.06 1400.06 1017.92C1377.47 1033.78 1368.36 1060.81 1379.7 1078.29C1391.05 1095.78 1418.56 1097.09 1441.14 1081.23C1463.73 1065.37 1472.84 1038.34 1461.5 1020.86Z" fill="#3F3D56"/>
<path opacity="0.2" d="M1436.4 982.142C1425.06 964.658 1397.55 963.342 1374.97 979.201C1352.38 995.061 1343.26 1022.09 1354.61 1039.58C1365.95 1057.06 1393.46 1058.38 1416.05 1042.52C1438.63 1026.66 1447.75 999.626 1436.4 982.142Z" fill="#3F3D56"/>
<path opacity="0.2" d="M1411.27 943.452C1399.93 925.968 1372.42 924.651 1349.83 940.511C1327.24 956.371 1318.13 983.401 1329.47 1000.89C1340.82 1018.37 1368.33 1019.69 1390.91 1003.83C1413.5 987.966 1422.61 960.936 1411.27 943.452Z" fill="#3F3D56"/>
<path opacity="0.2" d="M1045.36 814.759C1037.02 814.492 1029.05 813.631 1021.51 812.181L1122.24 726.249L1006.14 808.566C985.686 802.045 969.521 790.772 958.639 775.435C947.756 760.099 942.385 741.022 942.853 719.372L1129.86 657.666L945.421 696.179C949.901 672.936 960.213 648.199 975.71 623.514C991.207 598.828 1011.56 574.725 1035.49 552.709C1059.42 530.692 1086.43 511.236 1114.81 495.556C1143.19 479.875 1172.35 468.306 1200.46 461.573C1228.56 454.839 1255.02 453.084 1278.17 456.419C1301.31 459.753 1320.66 468.105 1335 480.952C1349.34 493.8 1358.35 510.867 1361.49 531.088C1364.63 551.309 1361.82 574.249 1353.23 598.476C1366.19 598.9 1378.29 600.721 1389.29 603.908L1277.68 744.772L1407.35 610.749C1429.66 621.684 1444.91 639.399 1451.72 662.292C1458.53 685.184 1456.68 712.532 1446.34 741.858C1480.19 742.972 1507.67 753.564 1525.65 772.423C1543.62 791.282 1551.36 817.647 1547.98 848.5C1544.6 879.353 1530.24 913.45 1506.54 946.889C1482.83 980.328 1450.75 1011.76 1413.95 1037.59C1377.15 1063.42 1337.12 1082.6 1298.45 1092.94C1259.78 1103.28 1224.02 1104.36 1195.27 1096.06C1166.51 1087.76 1145.93 1070.42 1135.86 1046.01C1125.79 1021.6 1126.65 991.114 1138.34 958.038C1097.91 956.699 1066.76 941.844 1049.9 915.858C1033.04 889.873 1031.44 854.266 1045.36 814.759V814.759Z" fill="#FF4893"/>
<path opacity="0.1" d="M1441.75 640.682C1458.66 666.659 1460.23 702.318 1446.18 741.875C1480.06 742.961 1507.57 753.529 1525.57 772.372C1543.57 791.215 1551.34 817.57 1547.99 848.422C1544.63 879.274 1530.28 913.376 1506.59 946.825C1482.9 980.274 1450.81 1011.72 1414.01 1037.56C1377.21 1063.4 1337.18 1082.6 1298.49 1092.95C1259.81 1103.3 1224.04 1104.39 1195.28 1096.09C1166.52 1087.79 1145.92 1070.44 1135.85 1046.03C1125.78 1021.62 1126.65 991.121 1138.35 958.038C1099.14 956.862 1433.31 627.688 1441.75 640.682Z" fill="black"/>
</g>
<g opacity="0.2">
<path opacity="0.2" d="M209.662 1133.78C223.972 1117.65 212.602 1086.36 184.268 1063.88C155.933 1041.4 121.363 1036.25 107.054 1052.38C92.7438 1068.5 104.113 1099.8 132.447 1122.28C160.782 1144.76 195.352 1149.91 209.662 1133.78Z" fill="#3F3D56"/>
<path opacity="0.2" d="M183.107 696.343C179.512 686.881 176.754 677.718 174.856 668.926L318.27 766.295L171.736 650.902C169.495 626.572 174.589 606.185 186.706 590.989C198.823 575.792 217.709 566.104 242.208 562.519L398.74 761.859L269.416 561.009C297.575 561.649 330.132 568.586 365.053 581.387C399.974 594.187 436.509 612.576 472.376 635.404C508.243 658.233 542.672 685.011 573.512 714.066C604.353 743.121 630.942 773.829 651.62 804.272C672.297 834.715 686.619 864.24 693.69 891.001C700.762 917.762 700.431 941.185 692.718 959.808C685.006 978.431 670.077 991.853 648.865 999.236C627.653 1006.62 600.613 1007.8 569.434 1002.72C575.013 1017.43 578.617 1031.42 580.183 1044.45L370.089 945.254L580.947 1066.14C579.102 1093.39 566.356 1113.97 543.862 1126C521.368 1138.04 489.836 1141.15 452.121 1135.06C466.678 1173.47 467.634 1206.5 454.878 1230.37C442.123 1254.24 416.171 1267.99 379.992 1270.04C343.812 1272.09 298.867 1262.35 250.297 1241.96C201.726 1221.56 151.493 1191.32 105.342 1154.69C59.192 1118.07 18.9887 1076.54 -10.6686 1034.86C-40.3258 993.173 -58.2394 953.02 -62.3599 918.99C-66.4805 884.96 -56.6416 858.428 -33.9689 842.427C-11.2962 826.427 23.2948 821.606 65.8469 828.514C48.4672 782.627 50.5802 744.647 71.8467 720.676C93.1131 696.705 132.298 688.135 183.107 696.343V696.343Z" fill="#FF4893"/>
<path opacity="0.1" d="M563.439 1110.64C542.207 1134.67 502.947 1143.21 452.027 1134.88C466.628 1173.32 467.624 1206.38 454.9 1230.28C442.176 1254.18 416.247 1267.95 380.08 1270.03C343.914 1272.1 298.97 1262.39 250.394 1242C201.817 1221.62 151.57 1191.38 105.403 1154.76C59.2364 1118.13 19.0147 1076.6 -10.6586 1034.9C-40.3318 993.212 -58.2578 953.048 -62.3851 919.007C-66.5123 884.967 -56.6739 858.427 -33.996 842.423C-11.318 826.42 23.2832 821.6 65.848 828.515C48.8587 784.046 574.07 1098.65 563.439 1110.64Z" fill="black"/>
</g>
<path opacity="0.1" d="M1084 138C1155.24 138 1213 91.8853 1213 35C1213 -21.8854 1155.24 -68 1084 -68C1012.76 -68 955 -21.8854 955 35C955 91.8853 1012.76 138 1084 138Z" fill="#FF4893"/>
<path opacity="0.1" d="M71 510C163.784 510 239 434.336 239 341C239 247.664 163.784 172 71 172C-21.7838 172 -97 247.664 -97 341C-97 434.336 -21.7838 510 71 510Z" fill="#FF4893"/>
<path opacity="0.1" d="M527.5 176C604.544 176 667 123.617 667 59C667 -5.61732 604.544 -58 527.5 -58C450.456 -58 388 -5.61732 388 59C388 123.617 450.456 176 527.5 176Z" fill="#FF4893"/>
<path opacity="0.1" d="M1000.1 609.73C999.58 609.62 998.89 609.8 998.79 610.32C998.777 610.585 998.847 610.847 998.99 611.07C1000.14 612.883 1001.8 614.308 1003.77 615.16C1004.11 615.349 1004.48 615.468 1004.86 615.51C1005.06 615.534 1005.26 615.497 1005.44 615.404C1005.62 615.311 1005.76 615.167 1005.86 614.99C1005.92 614.839 1005.94 614.678 1005.93 614.517C1005.91 614.357 1005.87 614.201 1005.79 614.06C1005.48 613.519 1005.06 613.054 1004.55 612.7C1003.21 611.65 1001.84 610.02 1000.1 609.73Z" fill="black"/>
<g opacity="0.1">
<path opacity="0.1" d="M360.88 622.77C360.377 623.307 359.843 623.815 359.28 624.29C359.85 624.29 360.41 624.2 360.98 624.14C361 623.68 360.93 623.22 360.88 622.77Z" fill="black"/>
<path opacity="0.1" d="M351.82 616.83C353.07 616.75 354.3 616.62 355.54 616.44C356.652 616.299 357.74 616.003 358.77 615.56C358.266 614.559 357.685 613.599 357.03 612.69C356.408 613.069 355.734 613.355 355.03 613.54C354.049 614.72 352.976 615.821 351.82 616.83Z" fill="black"/>
<path opacity="0.1" d="M321.27 627.5C321.263 623.709 322.278 619.986 324.209 616.723C326.139 613.46 328.914 610.778 332.241 608.96C335.568 607.142 339.324 606.255 343.113 606.392C346.902 606.53 350.583 607.686 353.77 609.74L354.09 609.4C352.01 607.549 349.585 606.129 346.954 605.22C344.322 604.311 341.537 603.932 338.759 604.104C335.98 604.276 333.263 604.997 330.764 606.224C328.265 607.451 326.034 609.16 324.199 611.253C322.364 613.346 320.961 615.782 320.071 618.42C319.181 621.058 318.822 623.845 319.015 626.623C319.207 629.4 319.948 632.111 321.193 634.601C322.438 637.091 324.163 639.31 326.27 641.13C323.036 637.326 321.263 632.493 321.27 627.5V627.5Z" fill="black"/>
</g>
</g>
<defs>
<clipPath id="clip0">
<rect width="1440" height="1024" fill="white"/>
</clipPath>
</defs>
</svg>
